<svg width="45" height="68" viewBox="0 0 45 68" fill="none" xmlns="http://www.w3.org/2000/svg">
<path d="M22.5 0C16.5326 0 10.8097 2.38809 6.5901 6.63891C2.37053 10.8897 0 16.6551 0 22.6667C0 35.1837 22.5 68 22.5 68C22.5 68 45 35.1837 45 22.6667C45 16.6551 42.6295 10.8897 38.4099 6.63891C34.1903 2.38809 28.4674 0 22.5 0V0ZM22.5 36.2667C19.83 36.2667 17.2199 35.469 14.9998 33.9747C12.7797 32.4803 11.0494 30.3562 10.0276 27.8712C9.00584 25.3861 8.7385 22.6516 9.2594 20.0134C9.7803 17.3753 11.066 14.952 12.9541 13.05C14.8421 11.148 17.2475 9.85275 19.8663 9.32799C22.485 8.80323 25.1994 9.07255 27.6662 10.1019C30.133 11.1313 32.2414 12.8744 33.7248 15.1109C35.2082 17.3474 36 19.9768 36 22.6667C36 26.2736 34.5777 29.7328 32.0459 32.2833C29.5142 34.8338 26.0804 36.2667 22.5 36.2667Z" fill="#E53B3C"/>
</svg>
